<svg xmlns="http://www.w3.org/2000/svg" xmlns:xlink="http://www.w3.org/1999/xlink" width="48" zoomAndPan="magnify" viewBox="0 0 36 36.000001" height="48" preserveAspectRatio="xMidYMid meet" version="1.0"><path fill="#00b4c5" d="M 6.636719 22.757812 C 6.5 20.757812 7.195312 20.230469 7.699219 19.5625 C 7.777344 19.457031 7.667969 19.496094 7.542969 19.457031 C 6.75 19.199219 5.859375 18.378906 5.578125 17.746094 C 5.519531 17.621094 2.183594 8.144531 2.003906 7.554688 C 1.886719 7.179688 9.804688 7.886719 14.445312 13.878906 C 15.675781 15.472656 15.589844 15.601562 15.496094 15.742188 C 14.511719 17.210938 14.445312 17.347656 14.394531 17.210938 C 13.230469 14.042969 9.199219 11.34375 5.71875 10.816406 C 5.613281 10.800781 5.6875 10.9375 6.3125 13.171875 C 6.964844 15.5 6.769531 15.589844 8.070312 17.625 C 8.757812 18.703125 10.515625 18.226562 13.691406 18.3125 C 13.796875 18.316406 13.714844 18.390625 13.007812 19.4375 C 12.859375 19.65625 12.808594 19.5625 12.554688 19.503906 C 10.882812 19.109375 9.425781 20.144531 9.09375 21.332031 C 8.175781 24.613281 13.808594 25.917969 14.699219 22.332031 C 14.746094 22.144531 15.234375 22.183594 15.617188 21.632812 C 16.09375 20.9375 16.054688 20.917969 16.527344 20.222656 C 16.605469 20.109375 16.636719 20.273438 16.570312 21.949219 C 16.335938 27.925781 7.792969 28.695312 6.636719 22.757812 Z M 6.636719 22.757812 " fill-opacity="1" fill-rule="evenodd"/><path fill="#00b4c5" d="M 20.683594 20.941406 C 19.253906 18.851562 17.777344 16.492188 17.683594 16.519531 C 17.640625 16.53125 16.054688 18.9375 15.914062 19.148438 C 14.480469 21.320312 14.539062 21.519531 12.671875 22.128906 C 12.652344 22.132812 12.316406 22.242188 12.410156 22.105469 C 14.652344 18.769531 15.5625 17.359375 16.035156 16.664062 C 16.601562 15.839844 17.65625 14.160156 17.714844 14.195312 C 17.769531 14.222656 19.820312 17.335938 20 17.609375 C 22.875 21.972656 23.160156 22.253906 22.972656 22.203125 C 21.359375 21.761719 20.816406 21.105469 20.683594 20.941406 Z M 20.683594 20.941406 " fill-opacity="1" fill-rule="evenodd"/><path fill="#00b4c5" d="M 25.722656 20.335938 C 24.929688 19.601562 24.183594 19.183594 22.582031 19.566406 C 22.496094 19.589844 22.484375 19.566406 21.703125 18.402344 C 21.644531 18.320312 21.699219 18.3125 21.804688 18.316406 C 26.285156 18.390625 26.453125 18.304688 26.808594 18.121094 C 27.5 17.761719 28.375 15.730469 28.390625 15.671875 C 28.503906 15.289062 29.679688 11.222656 29.746094 10.863281 C 29.769531 10.730469 27.804688 11.117188 26.160156 11.988281 C 21.574219 14.414062 21.144531 17.304688 20.949219 17.257812 C 20.933594 17.257812 19.871094 15.683594 19.855469 15.640625 C 19.789062 15.488281 21.292969 13.261719 22.539062 12.132812 C 27.765625 7.417969 33.378906 7.394531 33.40625 7.523438 C 33.414062 7.578125 31.492188 13.046875 31.324219 13.519531 C 29.792969 17.816406 29.863281 18.152344 28.753906 18.976562 C 27.976562 19.546875 27.585938 19.40625 27.769531 19.617188 C 30.816406 23.039062 26.648438 28.183594 22.078125 26.527344 C 18.222656 25.132812 18.832031 20.722656 18.828125 20.410156 C 18.8125 19.558594 19.351562 21.695312 20.53125 22.199219 C 20.875 22.347656 20.597656 22.5625 21.121094 23.285156 C 23.21875 26.15625 28.25 23.414062 25.722656 20.335938 Z M 25.722656 20.335938 " fill-opacity="1" fill-rule="evenodd"/><path fill="#00b4c5" d="M 17.953125 19.414062 C 18.285156 19.945312 18.5 20.242188 18.457031 20.328125 C 17.777344 21.625 17.730469 21.726562 17.660156 21.628906 C 17.59375 21.523438 16.878906 20.453125 16.9375 20.253906 C 16.9375 20.25 17.660156 18.972656 17.726562 19.058594 C 17.808594 19.171875 17.867188 19.300781 17.953125 19.414062 Z M 17.953125 19.414062 " fill-opacity="1" fill-rule="evenodd"/></svg>