<svg xmlns="http://www.w3.org/2000/svg" xmlns:xlink="http://www.w3.org/1999/xlink" width="512" zoomAndPan="magnify" viewBox="0 0 384 383.999986" height="512" preserveAspectRatio="xMidYMid meet" version="1.0"><path fill="#00b4c5" d="M 67.3125 251.121094 C 65.847656 229.011719 73.464844 223.183594 78.976562 215.777344 C 79.824219 214.632812 78.640625 215.050781 77.257812 214.601562 C 68.574219 211.789062 58.828125 202.6875 55.722656 195.726562 C 55.097656 194.328125 18.523438 89.550781 16.550781 83.03125 C 15.289062 78.871094 102.03125 86.703125 152.898438 152.960938 C 166.414062 170.5625 165.46875 171.984375 164.425781 173.554688 C 153.636719 189.777344 152.902344 191.3125 152.347656 189.792969 C 139.578125 154.757812 95.402344 124.910156 57.265625 119.085938 C 56.09375 118.90625 56.921875 120.433594 63.789062 145.128906 C 70.941406 170.859375 68.785156 171.871094 83.039062 194.371094 C 90.589844 206.289062 109.832031 201 144.644531 201.984375 C 145.800781 202.015625 144.914062 202.835938 137.160156 214.398438 C 135.542969 216.8125 134.972656 215.78125 132.183594 215.121094 C 113.84375 210.796875 97.910156 222.222656 94.273438 235.339844 C 84.210938 271.632812 145.914062 286.050781 155.695312 246.429688 C 156.203125 244.359375 161.570312 244.761719 165.734375 238.675781 C 170.984375 231 170.542969 230.785156 175.726562 223.09375 C 176.578125 221.824219 176.910156 223.640625 176.191406 242.167969 C 173.640625 308.238281 80.019531 316.785156 67.3125 251.121094 Z M 67.3125 251.121094 " fill-opacity="1" fill-rule="evenodd"/><path fill="#00b4c5" d="M 221.289062 231.050781 C 205.609375 207.941406 189.414062 181.851562 188.410156 182.132812 C 187.945312 182.261719 170.535156 208.875 169.003906 211.214844 C 153.285156 235.238281 153.929688 237.410156 133.457031 244.152344 C 133.238281 244.222656 129.59375 245.425781 130.597656 243.910156 C 155.183594 207.003906 165.132812 191.429688 170.347656 183.742188 C 176.539062 174.617188 188.089844 156.074219 188.757812 156.4375 C 189.351562 156.761719 211.816406 191.167969 213.796875 194.203125 C 245.28125 242.425781 248.398438 245.53125 246.359375 244.972656 C 228.660156 240.113281 222.738281 232.832031 221.289062 231.050781 Z M 221.289062 231.050781 " fill-opacity="1" fill-rule="evenodd"/><path fill="#00b4c5" d="M 276.503906 224.359375 C 267.8125 216.242188 259.632812 211.59375 242.097656 215.851562 C 241.148438 216.085938 241.007812 215.84375 232.429688 202.945312 C 231.828125 202.039062 232.425781 201.984375 233.5625 202.003906 C 282.65625 202.847656 284.503906 201.878906 288.390625 199.84375 C 295.976562 195.867188 305.566406 173.433594 305.753906 172.765625 C 306.972656 168.523438 319.867188 123.570312 320.578125 119.621094 C 320.847656 118.128906 299.308594 122.433594 281.296875 132.046875 C 231.03125 158.875 226.347656 190.820312 224.171875 190.320312 C 224.03125 190.289062 212.390625 172.890625 212.1875 172.421875 C 211.457031 170.726562 227.933594 146.109375 241.628906 133.648438 C 298.898438 81.527344 360.40625 81.273438 360.691406 82.695312 C 360.816406 83.304688 339.730469 143.765625 337.882812 148.992188 C 321.097656 196.46875 321.886719 200.21875 309.707031 209.292969 C 301.222656 215.617188 296.921875 214.070312 298.957031 216.375 C 332.328125 254.230469 286.660156 311.089844 236.542969 292.800781 C 194.3125 277.394531 200.996094 228.625 200.9375 225.144531 C 200.789062 215.726562 206.683594 239.375 219.59375 244.941406 C 223.382812 246.578125 220.3125 248.964844 226.082031 256.929688 C 249.066406 288.675781 304.191406 258.371094 276.503906 224.359375 Z M 276.503906 224.359375 " fill-opacity="1" fill-rule="evenodd"/><path fill="#00b4c5" d="M 191.335938 214.132812 C 194.992188 220.003906 197.347656 223.308594 196.859375 224.253906 C 189.429688 238.613281 188.902344 239.738281 188.160156 238.617188 C 187.402344 237.472656 179.5625 225.648438 180.214844 223.414062 C 180.214844 223.410156 188.136719 209.25 188.867188 210.238281 C 189.78125 211.476562 190.421875 212.898438 191.335938 214.132812 Z M 191.335938 214.132812 " fill-opacity="1" fill-rule="evenodd"/></svg>