<svg xmlns="http://www.w3.org/2000/svg" xmlns:xlink="http://www.w3.org/1999/xlink" width="2000" zoomAndPan="magnify" viewBox="0 0 1500 1499.999933" height="2000" preserveAspectRatio="xMidYMid meet" version="1.0"><path fill="#00b4c5" d="M 287.027344 970.453125 C 281.578125 888.242188 309.882812 866.574219 330.351562 839.03125 C 333.507812 834.785156 329.113281 836.339844 323.972656 834.671875 C 291.707031 824.203125 255.5 790.355469 243.972656 764.480469 C 241.65625 759.28125 105.789062 369.6875 98.453125 345.445312 C 93.773438 329.984375 416 359.089844 604.960938 605.46875 C 655.164062 670.921875 651.65625 676.195312 647.773438 682.039062 C 607.699219 742.363281 604.976562 748.074219 602.917969 742.421875 C 555.476562 612.152344 391.375 501.171875 249.707031 479.5 C 245.347656 478.835938 248.429688 484.527344 273.933594 576.351562 C 300.503906 672.019531 292.5 675.777344 345.445312 759.433594 C 373.5 803.757812 444.984375 784.085938 574.292969 787.75 C 578.601562 787.871094 575.304688 790.921875 546.5 833.902344 C 540.480469 842.882812 538.367188 839.046875 528.003906 836.601562 C 459.882812 820.511719 400.691406 863.003906 387.179688 911.777344 C 349.796875 1046.726562 579.015625 1100.335938 615.34375 953.007812 C 617.242188 945.308594 637.175781 946.804688 652.636719 924.179688 C 672.144531 895.636719 670.511719 894.847656 689.761719 866.238281 C 692.929688 861.527344 694.15625 868.269531 691.496094 937.164062 C 682.011719 1182.828125 334.230469 1214.621094 287.027344 970.453125 Z M 287.027344 970.453125 " fill-opacity="1" fill-rule="evenodd"/><path fill="#00b4c5" d="M 859.019531 895.832031 C 800.769531 809.90625 740.609375 712.882812 736.875 713.933594 C 735.152344 714.417969 670.472656 813.367188 664.78125 822.074219 C 606.394531 911.394531 608.785156 919.46875 532.734375 944.539062 C 531.921875 944.808594 518.382812 949.269531 522.125 943.648438 C 613.453125 806.40625 650.414062 748.507812 669.785156 719.917969 C 692.773438 685.984375 735.695312 617.046875 738.167969 618.394531 C 740.375 619.597656 823.828125 747.535156 831.191406 758.820312 C 948.144531 938.125 959.71875 949.667969 952.152344 947.589844 C 886.40625 929.527344 864.394531 902.445312 859.019531 895.832031 Z M 859.019531 895.832031 " fill-opacity="1" fill-rule="evenodd"/><path fill="#00b4c5" d="M 1064.128906 870.941406 C 1031.847656 840.761719 1001.464844 823.480469 936.324219 839.320312 C 932.789062 840.175781 932.277344 839.285156 900.402344 791.324219 C 898.164062 787.957031 900.390625 787.742188 904.617188 787.816406 C 1086.984375 790.964844 1093.851562 787.363281 1108.289062 779.789062 C 1136.472656 765.007812 1172.085938 681.59375 1172.796875 679.109375 C 1177.316406 663.332031 1225.210938 496.175781 1227.859375 481.5 C 1228.863281 475.949219 1148.847656 491.953125 1081.929688 527.703125 C 895.214844 627.457031 877.808594 746.234375 869.722656 744.378906 C 869.203125 744.261719 825.960938 679.574219 825.210938 677.832031 C 822.496094 671.519531 883.707031 579.984375 934.570312 533.652344 C 1147.328125 339.851562 1375.816406 338.90625 1376.875 344.191406 C 1377.328125 346.460938 1299.007812 571.269531 1292.140625 590.707031 C 1229.789062 767.242188 1232.71875 781.179688 1187.476562 814.929688 C 1155.953125 838.449219 1139.980469 832.6875 1147.53125 841.261719 C 1271.503906 982.011719 1101.855469 1193.433594 915.679688 1125.4375 C 758.804688 1068.140625 783.628906 886.804688 783.421875 873.867188 C 782.863281 838.851562 804.757812 926.773438 852.714844 947.472656 C 866.800781 953.554688 855.394531 962.4375 876.820312 992.050781 C 962.210938 1110.09375 1166.980469 997.414062 1064.128906 870.941406 Z M 1064.128906 870.941406 " fill-opacity="1" fill-rule="evenodd"/><path fill="#00b4c5" d="M 747.746094 832.921875 C 761.335938 854.753906 770.085938 867.042969 768.269531 870.554688 C 740.664062 923.953125 738.710938 928.128906 735.953125 923.96875 C 733.136719 919.710938 704.011719 875.738281 706.429688 867.429688 C 706.433594 867.414062 735.863281 814.769531 738.578125 818.445312 C 741.972656 823.039062 744.347656 828.328125 747.746094 832.921875 Z M 747.746094 832.921875 " fill-opacity="1" fill-rule="evenodd"/></svg>