<svg xmlns="http://www.w3.org/2000/svg" xmlns:xlink="http://www.w3.org/1999/xlink" width="500" zoomAndPan="magnify" viewBox="0 0 375 374.999991" height="500" preserveAspectRatio="xMidYMid meet" version="1.2"><defs><clipPath id="05710e611f"><path d="M 39.992188 256.679688 L 331.828125 256.679688 L 331.828125 307.84375 L 39.992188 307.84375 Z M 39.992188 256.679688 "/></clipPath><clipPath id="5cbd34ca53"><path d="M 39.992188 61.070312 L 39.992188 301.882812 C 39.992188 305.195312 42.679688 307.882812 45.992188 307.882812 L 325.839844 307.882812 C 329.152344 307.882812 331.839844 305.195312 331.839844 301.882812 L 331.839844 61.070312 C 331.839844 57.757812 329.152344 55.070312 325.839844 55.070312 L 45.992188 55.070312 C 42.679688 55.070312 39.992188 57.757812 39.992188 61.070312 Z M 39.992188 61.070312 "/></clipPath><clipPath id="c10f6a64cf"><path d="M 52 191 L 295 191 L 295 289 L 52 289 Z M 52 191 "/></clipPath><clipPath id="d4daace909"><path d="M 39.992188 61.070312 L 39.992188 301.882812 C 39.992188 305.195312 42.679688 307.882812 45.992188 307.882812 L 325.839844 307.882812 C 329.152344 307.882812 331.839844 305.195312 331.839844 301.882812 L 331.839844 61.070312 C 331.839844 57.757812 329.152344 55.070312 325.839844 55.070312 L 45.992188 55.070312 C 42.679688 55.070312 39.992188 57.757812 39.992188 61.070312 Z M 39.992188 61.070312 "/></clipPath><clipPath id="88e3e9468b"><path d="M 64 127 L 258 127 L 258 261 L 64 261 Z M 64 127 "/></clipPath><clipPath id="867cb5a689"><path d="M 39.992188 61.070312 L 39.992188 301.882812 C 39.992188 305.195312 42.679688 307.882812 45.992188 307.882812 L 325.839844 307.882812 C 329.152344 307.882812 331.839844 305.195312 331.839844 301.882812 L 331.839844 61.070312 C 331.839844 57.757812 329.152344 55.070312 325.839844 55.070312 L 45.992188 55.070312 C 42.679688 55.070312 39.992188 57.757812 39.992188 61.070312 Z M 39.992188 61.070312 "/></clipPath><clipPath id="734bb0b541"><path d="M 83 55.070312 L 217 55.070312 L 217 221 L 83 221 Z M 83 55.070312 "/></clipPath><clipPath id="bb9d321a27"><path d="M 39.992188 61.070312 L 39.992188 301.882812 C 39.992188 305.195312 42.679688 307.882812 45.992188 307.882812 L 325.839844 307.882812 C 329.152344 307.882812 331.839844 305.195312 331.839844 301.882812 L 331.839844 61.070312 C 331.839844 57.757812 329.152344 55.070312 325.839844 55.070312 L 45.992188 55.070312 C 42.679688 55.070312 39.992188 57.757812 39.992188 61.070312 Z M 39.992188 61.070312 "/></clipPath></defs><g id="8ee60b42b8"><rect x="0" width="375" y="0" height="374.999991" style="fill:#ffffff;fill-opacity:1;stroke:none;"/><rect x="0" width="375" y="0" height="374.999991" style="fill:#000000;fill-opacity:1;stroke:none;"/><g clip-rule="nonzero" clip-path="url(#05710e611f)"><g clip-rule="nonzero" clip-path="url(#5cbd34ca53)"><path style=" stroke:none;fill-rule:evenodd;fill:#00b4c5;fill-opacity:1;" d="M 40.359375 307.210938 L 302.371094 256.824219 L 331.828125 307.84375 L 39.992188 307.84375 L 40.359375 307.210938 "/></g></g><g clip-rule="nonzero" clip-path="url(#c10f6a64cf)"><g clip-rule="nonzero" clip-path="url(#d4daace909)"><path style=" stroke:none;fill-rule:evenodd;fill:#00b4c5;fill-opacity:1;" d="M 52.246094 288.710938 L 265.082031 191.226562 L 294.542969 242.246094 Z M 52.246094 288.710938 "/></g></g><g clip-rule="nonzero" clip-path="url(#88e3e9468b)"><g clip-rule="nonzero" clip-path="url(#867cb5a689)"><path style=" stroke:none;fill-rule:evenodd;fill:#00b4c5;fill-opacity:1;" d="M 64.675781 260.859375 L 227.617188 127.003906 L 257.074219 178.027344 Z M 64.675781 260.859375 "/></g></g><g clip-rule="nonzero" clip-path="url(#734bb0b541)"><g clip-rule="nonzero" clip-path="url(#bb9d321a27)"><path style=" stroke:none;fill-rule:evenodd;fill:#00b4c5;fill-opacity:1;" d="M 83.726562 220.691406 L 187.238281 55.109375 L 216.695312 106.128906 Z M 83.726562 220.691406 "/></g></g><path style="fill:none;stroke-width:1;stroke-linecap:round;stroke-linejoin:miter;stroke:#00b4c5;stroke-opacity:1;stroke-miterlimit:4;" d="M 0.499266 0.503213 L 281.700427 0.500446 " transform="matrix(-0.460681,0.396648,-0.396648,-0.460681,214.132726,109.08457)"/><path style="fill:none;stroke-width:12;stroke-linecap:round;stroke-linejoin:miter;stroke:#00b4c5;stroke-opacity:1;stroke-miterlimit:4;" d="M 6.000467 6.000729 L 473.159412 6.002325 " transform="matrix(0.302353,0.527665,-0.527665,0.302353,190.082584,53.132706)"/><path style="fill:none;stroke-width:1;stroke-linecap:round;stroke-linejoin:miter;stroke:#00b4c5;stroke-opacity:1;stroke-miterlimit:4;" d="M 0.500322 0.50238 L 344.241443 0.501849 " transform="matrix(-0.558413,0.24138,-0.24138,-0.558413,257.521744,178.351174)"/><path style="fill:none;stroke-width:1;stroke-linecap:round;stroke-linejoin:miter;stroke:#00b4c5;stroke-opacity:1;stroke-miterlimit:4;" d="M 0.498487 0.501352 L 403.570973 0.502963 " transform="matrix(-0.597354,0.114639,-0.114639,-0.597354,293.507592,243.015776)"/><path style="fill:none;stroke-width:2;stroke-linecap:round;stroke-linejoin:miter;stroke:#00b4c5;stroke-opacity:1;stroke-miterlimit:4;" d="M 0.997868 1.002823 L 474.840185 0.997593 " transform="matrix(-0.608349,0.0000674797,-0.0000674797,-0.608349,329.521183,308.473281)"/><path style="fill:none;stroke-width:3;stroke-linecap:round;stroke-linejoin:miter;stroke:#00b4c5;stroke-opacity:1;stroke-miterlimit:4;" d="M 1.497318 1.499496 L 319.379355 1.500554 " transform="matrix(-0.322248,0.515989,-0.515989,-0.322248,188.010139,55.784828)"/></g></svg>